<svg id="图层_1" data-name="图层 1" xmlns="http://www.w3.org/2000/svg" viewBox="0 0 1024 1024"><defs><style>.cls-1{fill:#aaa;}</style></defs><title>年级</title><path class="cls-1" d="M828.74,0H194.06c-51.5,0-66.4,17.3-66.4,68V728.28a37.07,37.07,0,0,0,5.3,18.5,35.41,35.41,0,0,0,14.5,23.6L491,1017.17a36.18,36.18,0,0,0,42.3,0L876.74,770.38a35.09,35.09,0,0,0,14.2-22.5,34.09,34.09,0,0,0,4.1-16.1l1.3-665.19c0-48.2-18.6-66.6-67.6-66.6ZM352.85,465.69s-62.7-70-100.4-112.4c-13.2-15.5-4.6-37.4,21.6-41.5,53.6-9.5,136.5-27.8,136.5-27.8s42.2-75.3,70.89-123.4c17.9-33.4,22.3-36.9,31.8-36.9s11.7,1.3,32.3,36.9c28.5,48.1,70.1,123.5,70.1,123.5s81.9,15.1,134.9,24.6c25.9,4.1,34.4,32.5,21.3,47.9-37.2,42.5-96,109.5-96,109.5s9.5,77.1,15.6,129.8c1.8,20.3-18.3,35-34,35a40.58,40.58,0,0,1-16.5-3.8c-44.4-20.9-112-53.5-127.2-60.7-15.39,7.3-83.7,39.1-128.7,60.1a40.54,40.54,0,0,1-16.6,3.8c-16,0-37.6-14.8-35.7-35,6-52.5,20.1-129.6,20.1-129.6Zm0,0"/></svg>