<svg id="图层_1" data-name="图层 1" xmlns="http://www.w3.org/2000/svg" viewBox="0 0 1024 1024"><defs><style>.cls-1{fill:#f66;fill-rule:evenodd;}</style></defs><title>支付失败</title><path class="cls-1" d="M512,0C229.23,0,0,229.23,0,512s229.23,512,512,512,512-229.24,512-512S794.77,0,512,0ZM742.71,672.36a51.49,51.49,0,0,1,1,71.34,48,48,0,0,1-69.31,1L512,582.34,349.6,744.74a48,48,0,0,1-69.31-1,51.49,51.49,0,0,1,1-71.34L441.66,512,281.29,351.63a51.49,51.49,0,0,1-1-71.34,48,48,0,0,1,69.31-1L512,441.65,674.4,279.26a48,48,0,0,1,69.31,1,51.49,51.49,0,0,1-1,71.34L582.34,512Z"/></svg>