<?xml version="1.0" encoding="UTF-8"?>
<svg width="29px" height="34px" viewBox="0 0 29 34" version="1.1" xmlns="http://www.w3.org/2000/svg" xmlns:xlink="http://www.w3.org/1999/xlink">
    <!-- Generator: Sketch 46.2 (44496) - http://www.bohemiancoding.com/sketch -->
    <title>手机</title>
    <desc>Created with Sketch.</desc>
    <defs></defs>
    <g id="Page-1" stroke="none" stroke-width="1" fill="none" fill-rule="evenodd">
        <g id="分享－帐号注册" transform="translate(-115.000000, -715.000000)" fill-rule="nonzero" fill="#000000">
            <g id="手机" transform="translate(115.000000, 715.000000)">
                <path d="M3.15178014,34 C1.41286696,34 0,32.708 0,31.11 L0,2.89 C0,1.292 1.41286696,0 3.15178014,0 L25.8482199,0 C27.587133,0 29,1.292 29,2.89 L29,31.11 C29,32.708 27.587133,34 25.8482199,34 L3.15178014,34 L3.15178014,34 Z M3.8442623,2 C2.83830104,2 2,2.75601375 2,3.66666667 L2,30.3333333 C2,31.2611684 2.81967213,32 3.8442623,32 L25.1557377,32 C26.161699,32 27,31.2439863 27,30.3333333 L27,3.66666667 C27,2.73883162 26.1803279,2 25.1557377,2 L3.8442623,2 Z M11.1448141,29 C10.5107632,29 10,28.5555556 10,28 C10,27.4444444 10.5107632,27 11.1448141,27 L17.8551859,27 C18.4892368,27 19,27.4444444 19,28 C19,28.5555556 18.4892368,29 17.8551859,29 L11.1448141,29 Z" id="Shape"></path>
            </g>
        </g>
    </g>
</svg>