<?xml version="1.0" encoding="UTF-8"?>
<svg width="32px" height="34px" viewBox="0 0 32 34" version="1.1" xmlns="http://www.w3.org/2000/svg" xmlns:xlink="http://www.w3.org/1999/xlink">
    <!-- Generator: Sketch 46.2 (44496) - http://www.bohemiancoding.com/sketch -->
    <title>验证码</title>
    <desc>Created with Sketch.</desc>
    <defs></defs>
    <g id="Page-1" stroke="none" stroke-width="1" fill="none" fill-rule="evenodd">
        <g id="帐号登录（未登录状态）1" transform="translate(-115.000000, -808.000000)" fill-rule="nonzero" fill="#000000">
            <g id="验证码" transform="translate(115.000000, 808.000000)">
                <path d="M25.5235602,22.3308271 C24.1570681,22.3308271 23.1675393,21.4736842 23.1204188,20.3458647 L21,20.3458647 C21,20.9774436 21.2356021,21.7894737 21.8010471,22.5112782 C22.6020942,23.5037594 24.1099476,24 25.4764398,24 C28.0209424,24 30,22.4661654 30,20.3909774 C30,19.8045113 29.7643979,18.1353383 27.408377,17.4135338 C28.2565445,17.0075188 29.1989529,16.2857143 29.1989529,14.9774436 C29.1989529,13.3082707 27.6439791,12 25.5235602,12 C23.8743455,12 21.7068063,12.8571429 21.6125654,15.1578947 L23.6858639,15.1578947 C23.7329843,14.481203 24.2041885,13.6240602 25.4293194,13.6240602 C26.4659686,13.6240602 27.078534,14.3458647 27.078534,15.2030075 C27.078534,16.0601504 26.2303665,16.8270677 24.8638743,16.8270677 L24.2041885,16.8270677 L24.2041885,18.2255639 L25.1937173,18.2255639 C26.6544503,18.2255639 27.8324607,19.0827068 27.8324607,20.2556391 C27.8795812,21.4285714 27.0314136,22.3308271 25.5235602,22.3308271 Z M14.2918919,19.1450382 C13.1945946,20.2900763 12.1351351,21.4351145 11,22.5343511 L11,24 L18,24 L18,22.3969466 L13.3459459,22.3969466 C14.3297297,21.2977099 15.3513514,20.2442748 16.3351351,19.1450382 C17.5081081,17.9083969 17.9621622,16.9465649 18,15.6183206 C18,13.648855 16.7513514,12 14.6324324,12 C13.8756757,12 12.6648649,12.2748092 11.9081081,13.3740458 C11.3405405,14.1984733 11.1135135,15.1145038 11.0756757,16.1679389 L12.7027027,16.1679389 C12.7405405,14.6564885 13.3837838,13.648855 14.5189189,13.648855 C15.5783784,13.648855 16.3351351,14.4274809 16.3351351,15.7557252 C16.2594595,17.221374 15.3135135,18.0916031 14.2918919,19.1450382 L14.2918919,19.1450382 Z M1.00136054,7 C1.69795918,7 1.82857143,6.48780488 1.82857143,5.80487805 L1.82857143,2.77439024 C1.82857143,2.26219512 2.52517007,1.83536585 3.13469388,1.83536585 L28.952381,1.83536585 C29.5183673,1.83536585 30.1714286,2.17682927 30.1714286,2.77439024 L30.1714286,5.76219512 C30.1714286,6.44512195 30.4761905,7 31.1727891,7 C31.8693878,7 32,6.44512195 32,5.76219512 L32,3.07317073 L32,2.98780488 C31.9564626,1.32317073 30.6068027,0 28.9088435,0 L3.13469388,0 C1.43673469,0.0426829268 0.0870748299,1.36585366 0.043537415,3.0304878 C0.043537415,3.0304878 0,3.07317073 0,3.11585366 L0,5.80487805 C0,6.44512195 0.304761905,7 1.00136054,7 L1.00136054,7 Z M6,23 L6,12 L2,12 L2,13.4980545 L4.16326531,13.4980545 L4.16326531,23 L6,23 Z M31.9806617,30.9268293 L31.9806617,28.2378049 C31.9806617,27.554878 31.8501284,27 31.1539507,27 C30.4577731,27 30.1531953,27.554878 30.1531953,28.2378049 L30.1531953,31.2256098 C30.1531953,31.8231707 29.5005288,32.1646341 28.9348844,32.1646341 L3.13279952,32.1646341 C2.52364405,32.1646341 1.82746638,31.7378049 1.82746638,31.2256098 L1.82746638,28.195122 C1.82746638,27.5121951 1.69693307,27 1.0007554,27 C0.304577731,27 0,27.554878 0,28.2378049 L0,31.0121951 C0.0435111044,32.6768293 1.43586645,34 3.08928841,34 L28.8913733,34 C30.5883064,34 31.9371506,32.6768293 31.9806617,31.0121951 C32.0241728,30.9695122 31.9806617,30.9268293 31.9806617,30.9268293 L31.9806617,30.9268293 Z" id="Shape"></path>
            </g>
        </g>
    </g>
</svg>