<svg id="图层_1" data-name="图层 1" xmlns="http://www.w3.org/2000/svg" viewBox="0 0 1024 1024"><defs><style>.cls-1{fill:#aaa;}</style></defs><title>姓名</title><path class="cls-1" d="M501.19,0C644.94,0,761.4,114.58,761.4,255.91S644.94,511.83,501.19,511.83,241,397.25,241,255.91,357.46,0,501.19,0Zm0,0"/><path class="cls-1" d="M501.19,0C644.94,0,761.4,114.58,761.4,255.91S644.94,511.83,501.19,511.83,241,397.25,241,255.91,357.46,0,501.19,0ZM403.6,597.25H620.4c185.59,0,336.19,148,336.19,330.7v21.27c0,72-150.6,74.79-336.19,74.79H403.6c-185.59,0-336.19,0-336.19-74.79V927.94c0-182.67,150.6-330.7,336.19-330.7Zm0,0"/></svg>